<svg width="2560" height="1918" viewBox="0 0 2560 1918" fill="none" xmlns="http://www.w3.org/2000/svg">
<path d="M0 24C0 10.7452 10.7452 0 24 0H2536C2549.25 0 2560 10.7452 2560 24V1821.39C2560 1874.41 2517.02 1917.39 2464 1917.39H23.9999C10.7451 1917.39 0 1906.65 0 1893.39V24Z" fill="#8A8A8D"/>
<line x1="32" y1="20" x2="2128" y2="20" stroke="#730F4E" stroke-width="4"/>
<line x1="32" y1="30" x2="2128" y2="30" stroke="#060155" stroke-width="4"/>
<line x1="2454" y1="20" x2="2534" y2="20" stroke="#730F4E" stroke-width="4"/>
<line x1="2454" y1="30" x2="2534" y2="30" stroke="#060155" stroke-width="4"/>
<path d="M2145.36 33C2149.13 33 2151.31 30.6637 2151.31 26.8001C2151.31 22.9545 2149.13 20.6364 2145.49 20.6364H2141.36V33H2145.36ZM2143.22 31.37V22.2663H2145.37C2148.08 22.2663 2149.47 23.8842 2149.47 26.8001C2149.47 29.728 2148.08 31.37 2145.26 31.37H2143.22ZM2154.09 33L2155.23 29.728H2160.05L2161.18 33H2163.16L2158.71 20.6364H2156.56L2152.11 33H2154.09ZM2155.77 28.1584L2157.59 22.8821H2157.69L2159.51 28.1584H2155.77ZM2162.86 22.2422H2166.71V33H2168.57V22.2422H2172.43V20.6364H2162.86V22.2422ZM2180.12 20.6364H2178.11L2182.56 33H2184.71L2189.16 20.6364H2187.15L2183.7 30.706H2183.57L2180.12 20.6364ZM2190.95 33H2198.77V31.3942H2192.81V27.609H2198.29V26.0092H2192.81V22.2422H2198.7V20.6364H2190.95V33ZM2211.46 24.657C2211.04 22.0128 2208.97 20.4673 2206.35 20.4673C2203.15 20.4673 2200.79 22.864 2200.79 26.8182C2200.79 30.7724 2203.14 33.169 2206.35 33.169C2209.07 33.169 2211.05 31.4666 2211.46 29.0217L2209.58 29.0156C2209.26 30.5973 2207.93 31.4666 2206.36 31.4666C2204.25 31.4666 2202.65 29.8427 2202.65 26.8182C2202.65 23.8178 2204.24 22.1697 2206.37 22.1697C2207.95 22.1697 2209.27 23.0572 2209.58 24.657H2211.46ZM2213.08 22.2422H2216.93V33H2218.79V22.2422H2222.65V20.6364H2213.08V22.2422ZM2234.99 26.8182C2234.99 22.864 2232.62 20.4673 2229.42 20.4673C2226.21 20.4673 2223.85 22.864 2223.85 26.8182C2223.85 30.7663 2226.21 33.169 2229.42 33.169C2232.62 33.169 2234.99 30.7724 2234.99 26.8182ZM2233.14 26.8182C2233.14 29.8306 2231.55 31.4666 2229.42 31.4666C2227.29 31.4666 2225.7 29.8306 2225.7 26.8182C2225.7 23.8058 2227.29 22.1697 2229.42 22.1697C2231.55 22.1697 2233.14 23.8058 2233.14 26.8182ZM2237.32 33H2239.18V28.3214H2241.72C2241.76 28.3214 2241.79 28.3214 2241.84 28.3214L2244.35 33H2246.47L2243.73 27.9954C2245.25 27.4339 2246 26.1722 2246 24.5121C2246 22.2362 2244.59 20.6364 2241.72 20.6364H2237.32V33ZM2239.18 26.7156V22.2362H2241.52C2243.36 22.2362 2244.12 23.1115 2244.12 24.5121C2244.12 25.9066 2243.36 26.7156 2241.55 26.7156H2239.18ZM2255.19 33H2257.08L2259.68 23.7393H2259.77L2262.38 33H2264.25L2267.69 20.6364H2265.72L2263.32 30.217H2263.2L2260.7 20.6364H2258.75L2256.25 30.2109H2256.13L2253.73 20.6364H2251.76L2255.19 33ZM2271.25 20.6364H2269.39V33H2271.25V20.6364ZM2273.36 22.2422H2277.21V33H2279.07V22.2422H2282.93V20.6364H2273.36V22.2422ZM2285.04 33H2286.91V27.609H2293.07V33H2294.95V20.6364H2293.07V26.0092H2286.91V20.6364H2285.04V33ZM2308.4 26.8182C2308.4 22.864 2306.04 20.4673 2302.84 20.4673C2299.62 20.4673 2297.26 22.864 2297.26 26.8182C2297.26 30.7663 2299.62 33.169 2302.84 33.169C2306.04 33.169 2308.4 30.7724 2308.4 26.8182ZM2306.55 26.8182C2306.55 29.8306 2304.96 31.4666 2302.84 31.4666C2300.7 31.4666 2299.12 29.8306 2299.12 26.8182C2299.12 23.8058 2300.7 22.1697 2302.84 22.1697C2304.96 22.1697 2306.55 23.8058 2306.55 26.8182ZM2318.68 20.6364V28.7862C2318.68 30.5188 2317.3 31.4908 2315.64 31.4908C2313.98 31.4908 2312.59 30.5188 2312.59 28.7862V20.6364H2310.73V28.8164C2310.73 31.6055 2312.9 33.2053 2315.64 33.2053C2318.37 33.2053 2320.55 31.6055 2320.55 28.8164V20.6364H2318.68ZM2322.65 22.2422H2326.5V33H2328.36V22.2422H2332.22V20.6364H2322.65V22.2422ZM2339.88 33L2341.01 29.728H2345.84L2346.97 33H2348.95L2344.5 20.6364H2342.35L2337.9 33H2339.88ZM2341.56 28.1584L2343.38 22.8821H2343.48L2345.3 28.1584H2341.56ZM2360.72 20.6364H2358.87V29.7159H2358.75L2352.46 20.6364H2350.74V33H2352.6V23.9325H2352.72L2359 33H2360.72V20.6364ZM2362.48 20.6364L2366.97 28.1463V33H2368.83V28.1463L2373.31 20.6364H2371.19L2367.97 26.2567H2367.83L2364.6 20.6364H2362.48ZM2386.32 23.8842H2388.12C2388.06 21.9041 2386.31 20.4673 2383.8 20.4673C2381.32 20.4673 2379.42 21.886 2379.42 24.017C2379.42 25.7376 2380.65 26.7457 2382.63 27.283L2384.1 27.6815C2385.42 28.0316 2386.44 28.4663 2386.44 29.565C2386.44 30.7724 2385.29 31.5692 2383.7 31.5692C2382.26 31.5692 2381.07 30.9293 2380.96 29.5831H2379.09C2379.21 31.8228 2380.94 33.2053 2383.71 33.2053C2386.61 33.2053 2388.29 31.6779 2388.29 29.5831C2388.29 27.3555 2386.3 26.4922 2384.73 26.1058L2383.52 25.7919C2382.56 25.5444 2381.27 25.0916 2381.28 23.9084C2381.28 22.858 2382.24 22.0792 2383.76 22.0792C2385.18 22.0792 2386.18 22.7433 2386.32 23.8842ZM2401.25 26.8182C2401.25 22.864 2398.89 20.4673 2395.69 20.4673C2392.48 20.4673 2390.12 22.864 2390.12 26.8182C2390.12 30.7663 2392.48 33.169 2395.69 33.169C2398.89 33.169 2401.25 30.7724 2401.25 26.8182ZM2399.41 26.8182C2399.41 29.8306 2397.81 31.4666 2395.69 31.4666C2393.56 31.4666 2391.97 29.8306 2391.97 26.8182C2391.97 23.8058 2393.56 22.1697 2395.69 22.1697C2397.81 22.1697 2399.41 23.8058 2399.41 26.8182ZM2411.54 20.6364V28.7862C2411.54 30.5188 2410.15 31.4908 2408.49 31.4908C2406.83 31.4908 2405.45 30.5188 2405.45 28.7862V20.6364H2403.58V28.8164C2403.58 31.6055 2405.75 33.2053 2408.49 33.2053C2411.22 33.2053 2413.4 31.6055 2413.4 28.8164V20.6364H2411.54ZM2426.09 20.6364H2424.25V29.7159H2424.13L2417.84 20.6364H2416.11V33H2417.98V23.9325H2418.09L2424.38 33H2426.09V20.6364ZM2432.82 33C2436.58 33 2438.76 30.6637 2438.76 26.8001C2438.76 22.9545 2436.58 20.6364 2432.94 20.6364H2428.81V33H2432.82ZM2430.68 31.37V22.2663H2432.83C2435.53 22.2663 2436.93 23.8842 2436.93 26.8001C2436.93 29.728 2435.53 31.37 2432.71 31.37H2430.68Z" fill="#BDBDBD"/>
<g filter="url(#filter0_di)">
<circle cx="42" cy="173" r="10" fill="#E42A2C"/>
</g>
<path d="M17.3583 214H22.0973C24.9709 214 26.2688 212.569 26.2688 210.674C26.2688 208.76 24.9286 207.679 23.7031 207.613V207.492C24.8381 207.202 25.7859 206.43 25.7859 204.884C25.7859 203.055 24.5181 201.636 21.886 201.636H17.3583V214ZM19.2237 212.4V208.44H21.9826C23.4798 208.44 24.4155 209.406 24.4155 210.583C24.4155 211.621 23.7092 212.4 21.9162 212.4H19.2237ZM19.2237 206.985V203.224H21.7713C23.2504 203.224 23.9567 204.003 23.9567 205.029C23.9567 206.224 22.9787 206.985 21.723 206.985H19.2237ZM29.5257 214L30.6607 210.728H35.4902L36.6191 214H38.5993L34.15 201.636H31.9949L27.5456 214H29.5257ZM31.204 209.158L33.0272 203.882H33.1238L34.9469 209.158H31.204ZM38.2974 203.242H42.149V214H44.0083V203.242H47.8659V201.636H38.2974V203.242ZM49.3706 203.242H53.2222V214H55.0816V203.242H58.9392V201.636H49.3706V203.242ZM61.0536 214H68.8775V212.394H62.919V208.609H68.4006V207.009H62.919V203.242H68.805V201.636H61.0536V214ZM71.2968 214H73.1622V209.321H75.6977C75.74 209.321 75.7762 209.321 75.8184 209.321L78.3298 214H80.4548L77.714 208.995C79.2293 208.434 79.9839 207.172 79.9839 205.512C79.9839 203.236 78.5713 201.636 75.7037 201.636H71.2968V214ZM73.1622 207.716V203.236H75.5045C77.3458 203.236 78.1064 204.112 78.1064 205.512C78.1064 206.907 77.3458 207.716 75.5287 207.716H73.1622ZM81.3 201.636L85.7854 209.146V214H87.6448V209.146L92.1302 201.636H90.0113L86.7815 207.257H86.6487L83.4189 201.636H81.3Z" fill="#BDBDBD"/>
<defs>
<filter id="filter0_di" x="20" y="151" width="44" height="44" filterUnits="userSpaceOnUse" color-interpolation-filters="sRGB">
<feFlood flood-opacity="0" result="BackgroundImageFix"/>
<feColorMatrix in="SourceAlpha" type="matrix" values="0 0 0 0 0 0 0 0 0 0 0 0 0 0 0 0 0 0 127 0" result="hardAlpha"/>
<feOffset/>
<feGaussianBlur stdDeviation="6"/>
<feColorMatrix type="matrix" values="0 0 0 0 1 0 0 0 0 0.470833 0 0 0 0 0.476523 0 0 0 1 0"/>
<feBlend mode="normal" in2="BackgroundImageFix" result="effect1_dropShadow"/>
<feBlend mode="normal" in="SourceGraphic" in2="effect1_dropShadow" result="shape"/>
<feColorMatrix in="SourceAlpha" type="matrix" values="0 0 0 0 0 0 0 0 0 0 0 0 0 0 0 0 0 0 127 0" result="hardAlpha"/>
<feOffset/>
<feGaussianBlur stdDeviation="3"/>
<feComposite in2="hardAlpha" operator="arithmetic" k2="-1" k3="1"/>
<feColorMatrix type="matrix" values="0 0 0 0 0 0 0 0 0 0 0 0 0 0 0 0 0 0 0.6 0"/>
<feBlend mode="normal" in2="shape" result="effect2_innerShadow"/>
</filter>
</defs>
</svg>
